<svg xmlns="http://www.w3.org/2000/svg" xmlns:xlink="http://www.w3.org/1999/xlink"
     width="1024" height="1024" viewBox="0 0 1024 1024">
 <defs>
  <linearGradient id="t" x1="0" y1="0" x2="0" y2="1">
    <stop offset="0" stop-color="#E8A85A"/><stop offset="1" stop-color="#7E5212"/></linearGradient>
  <linearGradient id="s" x1="0" y1="0" x2="0" y2="1">
    <stop offset="0" stop-color="#fff" stop-opacity=".26"/>
    <stop offset=".45" stop-color="#fff" stop-opacity="0"/></linearGradient>
  <filter id="d" x="-30%" y="-30%" width="160%" height="160%">
    <feDropShadow dx="0" dy="20" stdDeviation="26" flood-color="#000" flood-opacity=".34"/></filter>
  <filter id="g" x="-30%" y="-30%" width="160%" height="160%">
    <feDropShadow dx="0" dy="8" stdDeviation="10" flood-color="#000" flood-opacity=".22"/></filter>
  <clipPath id="c"><rect x="92" y="92" width="840" height="840" rx="200"/></clipPath>
 </defs>
 <g filter="url(#d)"><rect x="92" y="92" width="840" height="840" rx="200" fill="url(#t)"/></g>
 <g clip-path="url(#c)"><rect x="92" y="92" width="840" height="420" fill="url(#s)"/></g>
 <rect x="94" y="94" width="836" height="836" rx="198" fill="none"
       stroke="#fff" stroke-opacity=".22" stroke-width="3"/>
 <g filter="url(#g)" transform="translate(260.00,260.00) scale(0.98438)">
  <path d="M118 66 H360 C388 66 410 88 410 116 V444 L256 386 L118 444 Z" fill="#fff"/>
  <path d="M170 152 H330 M170 214 H330 M170 276 H286" stroke="#000" stroke-width="24" opacity=".24" stroke-linecap="round"/>
  <rect x="270" y="330" width="176" height="94" rx="30" fill="#fff"/>
  <rect x="270" y="330" width="176" height="94" rx="30" fill="#000" opacity=".30"/>
  <text x="358" y="396" font-family="Helvetica,Arial,sans-serif" font-size="66" font-weight="700"
        fill="#fff" text-anchor="middle" letter-spacing="2">ES</text></g>
</svg>