<svg xmlns="http://www.w3.org/2000/svg" viewBox="0 0 400 400">
  <!-- once LAB · logo master (reproducción de referencia v2.1) · textos vectorizados -->
  <circle cx="200" cy="200" r="192" fill="#FFFFFF" stroke="#151217" stroke-width="5"/>
  <circle cx="200" cy="200" r="152" fill="none" stroke="#F0246B" stroke-width="7" stroke-linecap="round" stroke-dasharray="0.1 15.85"/>
  <path fill="#151217" d="M189.504 185.0V140.2H182.272Q181.888 142.76 180.672 144.488Q179.456 146.216 177.696 147.272Q175.936 148.328 173.728 148.744Q171.52 149.16 169.152 149.096V155.944H180.416V185.0Z M225.088 185.0V140.2H217.856Q217.472 142.76 216.256 144.488Q215.04 146.216 213.28 147.272Q211.52 148.328 209.312 148.744Q207.104 149.16 204.736 149.096V155.944H216.0V185.0Z"/>
  <path fill="#151217" d="M149.248 231.584Q149.248 229.14 149.898 227.242Q150.548 225.344 151.692 224.04399999999998Q152.83599999999998 222.744 154.37 222.06799999999998Q155.904 221.392 157.62 221.392Q159.336 221.392 160.87 222.06799999999998Q162.404 222.744 163.548 224.04399999999998Q164.692 225.344 165.34199999999998 227.242Q165.992 229.14 165.992 231.584Q165.992 234.028 165.34199999999998 235.926Q164.692 237.824 163.548 239.098Q162.404 240.372 160.87 241.048Q159.336 241.724 157.62 241.724Q155.904 241.724 154.37 241.048Q152.83599999999998 240.372 151.692 239.098Q150.548 237.824 149.898 235.926Q149.248 234.028 149.248 231.584ZM144.56799999999998 231.584Q144.56799999999998 234.548 145.39999999999998 237.096Q146.232 239.644 147.89600000000002 241.542Q149.56 243.44 152.00400000000002 244.506Q154.448 245.572 157.62 245.572Q160.844 245.572 163.262 244.506Q165.68 243.44 167.344 241.542Q169.00799999999998 239.644 169.83999999999997 237.096Q170.672 234.548 170.672 231.584Q170.672 228.62 169.83999999999997 226.046Q169.00799999999998 223.472 167.344 221.574Q165.68 219.676 163.262 218.584Q160.844 217.492 157.62 217.492Q154.448 217.492 152.00400000000002 218.584Q149.56 219.676 147.89600000000002 221.574Q146.232 223.472 145.39999999999998 226.046Q144.56799999999998 228.62 144.56799999999998 231.584Z M175.87199999999999 218.11599999999999V245.0H180.29199999999997V229.816Q180.29199999999997 227.996 180.78599999999997 226.462Q181.27999999999997 224.928 182.26799999999997 223.784Q183.25599999999997 222.64 184.73799999999997 222.016Q186.21999999999997 221.392 188.248 221.392Q190.796 221.392 192.25199999999998 222.848Q193.70799999999997 224.304 193.70799999999997 226.8V245.0H198.128V227.32Q198.128 225.136 197.68599999999998 223.34199999999998Q197.24399999999997 221.548 196.152 220.248Q195.05999999999997 218.948 193.29199999999997 218.22Q191.52399999999997 217.492 188.87199999999999 217.492Q182.892 217.492 180.136 222.38H180.03199999999998V218.11599999999999Z M223.036 226.748H227.612Q227.35199999999998 224.356 226.36399999999998 222.614Q225.37599999999998 220.872 223.84199999999998 219.728Q222.308 218.584 220.30599999999998 218.038Q218.30399999999997 217.492 216.016 217.492Q212.844 217.492 210.452 218.61Q208.06 219.728 206.474 221.678Q204.88799999999998 223.628 204.10799999999998 226.254Q203.32799999999997 228.88 203.32799999999997 231.89600000000002Q203.32799999999997 234.912 204.134 237.434Q204.94 239.956 206.526 241.776Q208.112 243.596 210.478 244.584Q212.844 245.572 215.91199999999998 245.572Q221.06 245.572 224.05 242.868Q227.04 240.164 227.76799999999997 235.172H223.244Q222.82799999999997 238.292 220.98199999999997 240.00799999999998Q219.136 241.724 215.85999999999999 241.724Q213.78 241.724 212.272 240.892Q210.76399999999998 240.06 209.82799999999997 238.68200000000002Q208.892 237.304 208.45 235.536Q208.00799999999998 233.768 208.00799999999998 231.89600000000002Q208.00799999999998 229.868 208.42399999999998 227.97Q208.83999999999997 226.072 209.80199999999996 224.61599999999999Q210.76399999999998 223.16 212.37599999999998 222.276Q213.988 221.392 216.38 221.392Q219.188 221.392 220.85199999999998 222.796Q222.516 224.2 223.036 226.748Z M251.376 228.984H235.932Q236.036 227.424 236.608 226.046Q237.18 224.668 238.168 223.628Q239.156 222.588 240.534 221.99Q241.912 221.392 243.628 221.392Q245.292 221.392 246.67000000000002 221.99Q248.048 222.588 249.062 223.60199999999998Q250.076 224.61599999999999 250.67399999999998 226.01999999999998Q251.272 227.424 251.376 228.984ZM255.64 236.472H251.272Q250.7 239.124 248.906 240.42399999999998Q247.112 241.724 244.304 241.724Q242.12 241.724 240.50799999999998 240.99599999999998Q238.896 240.268 237.856 239.046Q236.816 237.824 236.348 236.238Q235.88 234.652 235.932 232.88400000000001H256.056Q256.15999999999997 230.44 255.61399999999998 227.736Q255.06799999999998 225.032 253.63799999999998 222.744Q252.208 220.456 249.84199999999998 218.974Q247.476 217.492 243.888 217.492Q241.132 217.492 238.81799999999998 218.53199999999998Q236.504 219.572 234.814 221.44400000000002Q233.124 223.316 232.188 225.864Q231.252 228.412 231.252 231.48Q231.356 234.548 232.16199999999998 237.148Q232.968 239.748 234.57999999999998 241.62Q236.192 243.492 238.558 244.53199999999998Q240.924 245.572 244.148 245.572Q248.724 245.572 251.74 243.284Q254.756 240.996 255.64 236.472Z"/>
  <path fill="#F0246B" d="M175.9665 272.434H178.3415V283.948H185.23850000000002V286.0H175.9665Z M197.50150000000002 272.434H200.0285L205.2535 286.0H202.7075L201.4345 282.409H196.01950000000002L194.74650000000003 286.0H192.2955ZM196.6655 280.604H200.8075L198.77450000000002 274.771H198.7175Z M215.9205 278.115H219.7965Q220.65150000000003 278.115 221.22150000000002 277.6305Q221.7915 277.146 221.7915 276.234Q221.7915 275.208 221.2785 274.79Q220.7655 274.372 219.7965 274.372H215.9205ZM213.5455 272.434H220.13850000000002Q221.9625 272.434 223.0645 273.27Q224.1665 274.106 224.1665 275.797Q224.1665 276.823 223.663 277.55449999999996Q223.1595 278.286 222.22850000000003 278.685V278.723Q223.48250000000002 278.989 224.12850000000003 279.91049999999996Q224.77450000000002 280.832 224.77450000000002 282.219Q224.77450000000002 283.017 224.48950000000002 283.7105Q224.20450000000002 284.404 223.59650000000002 284.9075Q222.98850000000002 285.411 222.0385 285.70550000000003Q221.0885 286.0 219.7775 286.0H213.5455ZM215.9205 284.062H220.11950000000002Q221.20250000000001 284.062 221.80100000000002 283.50149999999996Q222.39950000000002 282.941 222.39950000000002 281.915Q222.39950000000002 280.908 221.80100000000002 280.3665Q221.20250000000001 279.825 220.11950000000002 279.825H215.9205Z"/>
</svg>