<svg width="361" height="241" viewBox="0 0 361 241" fill="none" xmlns="http://www.w3.org/2000/svg">
<metadata><?xpacket begin="﻿" id="W5M0MpCehiHzreSzNTczkc9d"?>
<x:xmpmeta xmlns:x="adobe:ns:meta/" x:xmptk="Adobe XMP Core 8.0-c001 1.000000, 0000/00/00-00:00:00        ">
   <rdf:RDF xmlns:rdf="http://www.w3.org/1999/02/22-rdf-syntax-ns#">
      <rdf:Description rdf:about=""
            xmlns:dc="http://purl.org/dc/elements/1.1/">
         <dc:format>image/svg+xml</dc:format>
         <dc:modified>2025-01-21T15:40:05.877Z</dc:modified>
      </rdf:Description>
   </rdf:RDF>
</x:xmpmeta>
                                                                                                    
                                                                                                    
                                                                                                    
                                                                                                    
                                                                                                    
                                                                                                    
                                                                                                    
                                                                                                    
                                                                                                    
                                                                                                    
                                                                                                    
                                                                                                    
                                                                                                    
                                                                                                    
                                                                                                    
                                                                                                    
                                                                                                    
                                                                                                    
                                                                                                    
                                                                                                    
                           
<?xpacket end="w"?></metadata>
<rect x="0.833984" y="0.5" width="359.667" height="240" rx="15.5" stroke="#001E60"/>
<g clip-path="url(#clip0_776_3311)">
<path d="M292.405 118.279C293.651 118.022 304.668 112.963 305.651 112.394C307.896 111.095 308.665 108.218 307.369 105.969C306.072 103.719 303.201 102.948 300.957 104.247C299.973 104.816 290.093 111.848 289.249 112.8C288.281 113.892 288.114 115.453 288.83 116.695C289.546 117.938 290.978 118.573 292.405 118.279Z" fill="#FFC220"/>
<path d="M305.651 129.48C304.667 128.912 293.65 123.852 292.405 123.596C290.978 123.301 289.546 123.936 288.83 125.179C288.114 126.422 288.281 127.984 289.249 129.074C290.093 130.026 299.974 137.059 300.957 137.627C303.202 138.927 306.073 138.155 307.369 135.906C308.665 133.656 307.895 130.779 305.651 129.48Z" fill="#FFC220"/>
<path d="M281.499 129.421C280.067 129.421 278.801 130.347 278.342 131.732C277.942 132.942 276.805 145.032 276.805 146.17C276.805 148.767 278.906 150.874 281.499 150.874C284.092 150.874 286.193 148.768 286.193 146.17C286.193 145.032 285.056 132.941 284.655 131.732C284.196 130.346 282.931 129.421 281.499 129.421Z" fill="#FFC220"/>
<path d="M270.591 123.596C269.347 123.852 258.328 128.911 257.346 129.48C255.1 130.78 254.332 133.657 255.628 135.906C256.924 138.156 259.795 138.927 262.04 137.627C263.023 137.058 272.903 130.026 273.748 129.074C274.716 127.982 274.883 126.422 274.167 125.179C273.451 123.937 272.018 123.301 270.591 123.596Z" fill="#FFC220"/>
<path d="M262.039 104.247C259.794 102.948 256.923 103.719 255.628 105.969C254.331 108.219 255.101 111.096 257.345 112.394C258.329 112.963 269.346 118.022 270.591 118.279C272.018 118.573 273.451 117.939 274.167 116.695C274.883 115.453 274.715 113.891 273.748 112.8C272.903 111.848 263.023 104.816 262.039 104.247Z" fill="#FFC220"/>
<path d="M281.499 91C278.907 91 276.805 93.1056 276.805 95.7041C276.805 96.8418 277.942 108.933 278.342 110.143C278.801 111.529 280.067 112.454 281.499 112.454C282.931 112.454 284.196 111.528 284.655 110.143C285.056 108.933 286.193 96.8428 286.193 95.7041C286.193 93.1066 284.092 91 281.499 91Z" fill="#FFC220"/>
</g>
<g clip-path="url(#clip1_776_3311)">
<path d="M90.8044 104L86.4281 125.765L81.518 104H72.9903L68.0801 125.765L63.7065 104H55L62.0996 137.247H72.2315L77.1877 115.172L82.1439 137.247H92.0536L99.1072 104H90.8044Z" fill="#0053E2"/>
<path d="M108.594 132.637C106.629 132.637 105.559 131.44 105.559 129.801C105.559 127.673 107.255 126.831 109.398 126.077C110.515 125.66 111.634 125.227 112.39 124.571V128.249C112.39 131.042 110.916 132.637 108.596 132.637M109.756 110.119C104.353 110.119 100.559 111.938 99.1745 113.221V120.314C100.781 118.896 104.174 116.813 108.64 116.813C111.406 116.813 112.433 117.567 112.433 119.119C112.433 120.448 111.005 120.981 107.03 121.823C101.004 123.064 97.5215 125.238 97.5215 130.423C97.5215 135.21 100.692 138.003 105.29 138.003C109.141 138.003 111.442 136.229 112.702 133.845V137.249H121.004V120.935C121.004 113.444 117.075 110.119 109.753 110.119" fill="#0053E2"/>
<path d="M132.73 104H124.113V137.247H132.73V104Z" fill="#0053E2"/>
<path d="M167.31 110.208C163.129 110.208 160.427 112.702 159.015 116.025C158.257 112.465 155.739 110.208 152.219 110.208C148.233 110.208 145.635 112.516 144.318 115.758V110.961H135.836V137.249H144.453V122.666C144.453 119.076 145.659 117.037 148.247 117.037C150.344 117.037 151.06 118.455 151.06 120.672V137.252H159.677V122.668C159.677 119.079 160.882 117.039 163.47 117.039C165.568 117.039 166.283 118.457 166.283 120.674V137.255H174.9V119.472C174.9 113.931 172.266 110.208 167.31 110.208Z" fill="#0053E2"/>
<path d="M187.846 132.637C185.882 132.637 184.811 131.44 184.811 129.801C184.811 127.673 186.508 126.831 188.651 126.077C189.768 125.66 190.887 125.227 191.643 124.571V128.249C191.643 131.042 190.169 132.637 187.846 132.637ZM189.006 110.119C183.603 110.119 179.809 111.938 178.424 113.221V120.314C180.031 118.896 183.424 116.813 187.89 116.813C190.656 116.813 191.683 117.567 191.683 119.119C191.683 120.448 190.255 120.981 186.28 121.823C180.254 123.064 176.771 125.238 176.771 130.423C176.771 135.21 179.942 138.003 184.54 138.003C188.391 138.003 190.692 136.229 191.952 133.845V137.249H200.254V120.935C200.254 113.444 196.325 110.119 189.003 110.119" fill="#0053E2"/>
<path d="M211.641 118.387V110.961H203.203V137.249H211.82V126.077C211.82 120.935 215.034 119.56 218.115 119.56C219.142 119.56 220.123 119.692 220.57 119.827V110.783C215.722 110.552 212.777 113.625 211.641 118.387Z" fill="#0053E2"/>
<path d="M237 117.61V110.961H231.51V105.862H222.893V128.469C222.893 134.809 226.507 137.779 232.268 137.779C234.948 137.779 236.376 137.246 237 136.848V130.242C236.509 130.598 235.704 130.864 234.677 130.864C232.759 130.907 231.507 130.065 231.507 127.275V117.61H236.997H237Z" fill="#0053E2"/>
</g>
<g clip-path="url(#clip2_776_3311)">
<path d="M341.002 32C347.629 32 353.002 26.6267 353.002 20C353.002 13.3733 347.629 8 341.002 8C334.375 8 329.002 13.3733 329.002 20C329.002 26.6267 334.375 32 341.002 32Z" fill="#ED2100"/>
<path fill-rule="evenodd" clip-rule="evenodd" d="M341 17.3333L345.027 13.3066L347.693 15.9733L343.667 20L347.693 24.0266L345.027 26.6933L341 22.6666L336.973 26.6933L334.307 24.0266L338.333 20L334.307 15.9733L336.973 13.3066L341 17.3333Z" fill="white"/>
</g>
<defs>
<clipPath id="clip0_776_3311">
<rect width="53" height="60" fill="white" transform="translate(254.998 91)"/>
</clipPath>
<clipPath id="clip1_776_3311">
<rect width="182" height="34" fill="white" transform="translate(55 104)"/>
</clipPath>
<clipPath id="clip2_776_3311">
<rect width="24" height="24" fill="white" transform="translate(329.002 8)"/>
</clipPath>
</defs>
</svg>
